<?xml version="1.0" standalone="no"?>
<!DOCTYPE svg PUBLIC "-//W3C//DTD SVG 20010904//EN"
 "http://www.w3.org/TR/2001/REC-SVG-20010904/DTD/svg10.dtd">
<svg version="1.0" xmlns="http://www.w3.org/2000/svg"
 width="512.000000pt" height="512.000000pt" viewBox="0 0 512.000000 512.000000"
 preserveAspectRatio="xMidYMid meet">
<metadata>
Created by potrace 1.14, written by Peter Selinger 2001-2017
</metadata>
<g transform="translate(0.000000,512.000000) scale(0.100000,-0.100000)"
fill="#000000" stroke="none">
<path d="M3565 5105 c-287 -45 -545 -171 -714 -350 l-54 -57 34 -28 c19 -15
44 -37 56 -47 l22 -20 59 56 c100 96 141 125 258 184 169 85 325 120 550 123
360 4 638 -96 865 -313 222 -213 333 -508 324 -863 -8 -319 -114 -559 -359
-815 -96 -100 -158 -185 -195 -267 -56 -122 -70 -203 -73 -411 l-2 -127 -506
2 -505 3 -1 190 c-1 105 -2 193 -3 196 0 3 -104 5 -230 5 -310 -1 -296 -15
-305 299 -4 115 -8 210 -9 210 -1 1 -65 28 -142 61 -230 97 -234 119 -83 449
95 209 95 210 102 310 3 55 8 112 11 128 21 122 29 157 51 225 14 42 43 112
65 154 21 43 39 80 39 83 0 8 -107 75 -119 75 -14 0 -106 -191 -130 -271 -39
-126 -57 -223 -67 -369 -6 -84 -12 -106 -51 -190 -127 -271 -146 -322 -151
-396 -10 -154 58 -249 228 -318 52 -22 96 -40 98 -41 2 -2 5 -67 7 -146 3 -79
7 -164 11 -189 12 -87 61 -155 141 -196 57 -28 61 -29 218 -29 88 0 162 -3
165 -7 3 -4 5 -93 5 -197 l0 -191 657 0 658 0 1 208 c1 252 2 262 34 359 32
95 78 166 166 258 132 138 181 199 242 301 73 122 142 299 161 414 3 19 10 58
15 85 10 52 7 348 -3 400 -4 17 -11 55 -17 85 -56 283 -225 555 -449 723 -175
132 -354 206 -610 252 -68 12 -384 12 -465 0z"/>
<path d="M3912 4789 c-15 -6 -17 -18 -16 -70 1 -35 2 -67 3 -70 1 -3 34 -5 74
-5 l72 1 1 73 c1 39 -2 72 -5 73 -40 4 -116 3 -129 -2z"/>
<path d="M3596 4723 c1 -38 2 -71 3 -74 0 -4 34 -6 74 -6 l73 0 1 73 1 74 -77
0 -76 0 1 -67z"/>
<path d="M1822 4587 l-52 -52 42 -43 43 -42 -315 0 -315 0 -1 -525 0 -525 73
0 c40 0 73 3 74 8 1 4 2 205 3 447 l1 440 240 3 240 2 -43 -43 -42 -43 53 -52
52 -52 129 129 c71 70 130 131 130 135 1 6 -164 176 -236 243 l-24 23 -52 -53z"/>
<path d="M3137 4344 c-26 -26 -47 -50 -47 -53 0 -4 35 -41 78 -83 l77 -77 52
53 52 53 -75 74 c-41 41 -78 75 -82 77 -4 1 -29 -19 -55 -44z"/>
<path d="M4372 4317 c-39 -40 -72 -75 -72 -79 0 -10 88 -98 98 -98 10 0 152
141 152 151 0 9 -89 99 -99 99 -3 0 -39 -33 -79 -73z"/>
<path d="M3705 4355 c-243 -75 -384 -320 -317 -550 29 -101 90 -192 166 -247
l41 -29 1 -89 c2 -133 36 -199 127 -245 115 -57 243 -10 307 114 7 13 14 69
16 125 2 70 7 102 16 105 26 9 114 101 145 153 144 239 30 555 -235 651 -68
24 -208 31 -267 12z m250 -169 c106 -53 166 -155 161 -278 -4 -116 -61 -204
-164 -255 -74 -36 -182 -39 -253 -6 -97 44 -164 140 -173 248 -20 233 218 394
429 291z m-59 -758 c2 -76 -34 -117 -93 -104 -44 10 -59 46 -54 126 1 24 3 25
73 23 l73 -1 1 -44z"/>
<path d="M2971 3992 c-14 -5 -15 -142 -1 -143 28 -4 197 -5 207 -1 8 2 11 28
10 75 l-2 72 -102 0 c-56 0 -107 -1 -112 -3z"/>
<path d="M4459 3990 c-6 -23 -4 -118 2 -130 6 -11 31 -15 113 -15 l106 -1 0
75 0 76 -110 0 c-61 0 -111 -2 -111 -5z"/>
<path d="M3160 3625 l-74 -75 34 -37 c39 -42 62 -62 71 -63 3 0 40 34 82 76
l76 76 -47 49 c-26 27 -51 49 -57 49 -6 0 -44 -34 -85 -75z"/>
<path d="M4343 3653 c-24 -24 -43 -47 -43 -51 0 -3 34 -41 77 -84 l76 -77 49
51 c26 27 48 53 48 57 0 11 -145 151 -155 150 -6 -1 -29 -21 -52 -46z"/>
<path d="M1097 3084 c-301 -46 -540 -162 -735 -355 -234 -232 -360 -555 -360
-924 0 -109 8 -199 23 -265 3 -14 8 -36 11 -50 11 -55 65 -203 98 -268 59
-118 150 -243 265 -365 121 -129 170 -203 200 -305 29 -94 29 -102 30 -339 l1
-213 290 0 c269 0 290 1 291 18 1 9 2 42 2 72 l1 55 -215 3 -216 2 -1 136 c-4
317 -63 460 -281 683 -174 178 -279 370 -328 601 -25 116 -24 370 1 490 36
170 98 315 191 445 46 64 172 190 221 221 16 10 31 21 34 25 3 4 43 27 90 52
79 42 231 100 297 112 15 2 39 7 53 10 151 31 420 27 581 -9 308 -69 564 -266
701 -541 76 -151 111 -295 124 -505 7 -94 8 -98 102 -305 151 -330 147 -352
-83 -449 -77 -33 -141 -60 -142 -61 -1 0 -5 -95 -9 -210 -3 -124 -11 -220 -17
-234 -7 -13 -25 -34 -40 -45 -27 -20 -41 -21 -255 -21 l-227 0 -1 -190 c-1
-104 -2 -193 -3 -197 0 -5 -97 -8 -215 -8 l-213 0 1 -72 1 -73 290 -3 291 -2
-1 191 c0 105 2 194 5 198 3 3 75 6 160 6 177 0 223 11 284 71 73 71 83 109
91 343 2 79 6 144 7 145 2 1 46 20 98 41 164 68 235 162 229 307 -3 80 -5 85
-109 313 -83 182 -88 195 -94 280 -13 169 -36 289 -83 419 -99 275 -301 506
-558 638 -130 66 -227 97 -415 133 -70 13 -374 12 -463 -1z"/>
<path d="M608 2319 l-46 -48 75 -76 c41 -41 79 -75 83 -75 10 0 100 89 100 98
0 12 -144 152 -155 151 -6 -1 -31 -23 -57 -50z"/>
<path d="M1847 2293 l-77 -78 52 -53 53 -52 80 80 80 80 -50 50 c-27 27 -52
50 -56 50 -3 0 -40 -35 -82 -77z"/>
<path d="M1166 2328 c-146 -48 -258 -162 -300 -307 -33 -114 -11 -265 54 -363
31 -47 116 -132 139 -139 10 -4 14 -31 15 -99 3 -114 22 -166 78 -214 97 -84
231 -72 321 28 38 43 49 83 51 188 2 78 4 91 21 100 35 18 129 123 152 169 28
54 53 150 53 200 0 206 -143 392 -342 444 -68 18 -174 15 -242 -7z m260 -160
c59 -27 115 -83 144 -145 32 -65 33 -177 2 -245 -26 -59 -91 -124 -151 -151
-65 -31 -189 -30 -248 1 -101 53 -160 138 -169 244 -8 77 6 131 49 194 83 121
241 165 373 102z m-55 -728 c8 -86 -20 -140 -71 -140 -48 0 -72 32 -75 97 l-2
58 73 0 c59 0 74 -3 75 -15z"/>
<path d="M443 1964 c-2 -6 -3 -40 -1 -75 l3 -64 107 0 c87 0 108 3 111 15 3
13 2 95 -2 125 -2 14 -212 14 -218 -1z"/>
<path d="M1948 1972 c-13 -2 -16 -16 -14 -75 l1 -72 110 0 110 0 3 73 c2 53 0
72 -10 73 -33 3 -186 4 -200 1z"/>
<path d="M3755 1270 l1 -450 -240 0 -241 0 43 42 42 43 -52 52 -53 53 -132
-132 -133 -133 132 -132 133 -133 52 52 53 52 -42 43 -42 43 315 0 315 0 0
525 0 525 -75 0 -76 0 0 -450z"/>
<path d="M1822 1636 l-53 -53 80 -80 80 -81 50 51 c28 28 51 54 51 57 0 3 -35
40 -77 82 l-78 76 -53 -52z"/>
<path d="M638 1604 l-75 -77 46 -48 c26 -27 51 -49 57 -49 5 0 43 34 84 75
l74 75 -29 32 c-37 39 -68 67 -76 68 -3 0 -40 -34 -81 -76z"/>
</g>
</svg>
